<svg version="1.1" xmlns="http://www.w3.org/2000/svg" width="500" height="500">
<path d="M0 0 C1.99475724 0.82439776 3.96195177 1.69460231 5.92724609 2.58691406 C6.98939331 3.05943604 6.98939331 3.05943604 8.07299805 3.54150391 C11.88947192 5.25310294 15.64637893 7.0447264 19.36474609 8.96191406 C24.15942263 11.43239147 29.13089804 13.28720429 34.19677734 15.12597656 C37.17724609 16.33691406 37.17724609 16.33691406 39.65771484 17.82910156 C42.56913345 19.5714389 45.49129715 20.67568034 48.67724609 21.83691406 C52.82677022 23.34935744 56.41685359 25.03651082 60.17724609 27.33691406 C61.76644808 28.01874134 63.37131277 28.6652138 64.98974609 29.27441406 C68.18449031 30.51444812 71.25790158 31.8262025 74.30224609 33.39941406 C77.39370042 34.99421193 80.52119294 36.1906416 83.79833984 37.36425781 C87.53632312 38.8925958 91.08135482 40.79600131 94.67163086 42.63989258 C99.75980918 45.21357604 104.96726043 47.27306043 110.33740234 49.19628906 C113.17724609 50.33691406 113.17724609 50.33691406 115.64208984 51.82128906 C118.55984331 53.56564707 121.48521082 54.67346196 124.67724609 55.83691406 C128.83288336 57.35158559 132.39588404 59.06809683 136.17724609 61.33691406 C138.32817578 62.21006374 140.49620723 63.04195597 142.67724609 63.83691406 C146.82592475 65.34904927 150.414767 67.04180182 154.17724609 69.33691406 C156.14002844 70.07295744 158.10889257 70.69124263 160.11474609 71.29785156 C163.21651758 72.86048644 164.97040367 74.64389722 167.17724609 77.33691406 C167.66381169 80.2316648 167.84263834 82.53355251 167.79197693 85.42138672 C167.79766018 86.23067438 167.80334344 87.03996204 167.80919892 87.87377357 C167.82210955 90.5833657 167.79930643 93.29146616 167.77661133 96.00097656 C167.77847527 97.94431878 167.78251167 99.88765995 167.78855896 101.83099365 C167.79854294 107.10792919 167.77734767 112.38432853 167.75007892 117.66118622 C167.72626472 123.18150304 167.72919398 128.70180893 167.72877502 134.22216797 C167.72414537 143.49293098 167.70049307 152.76348877 167.66430664 162.03417969 C167.62257229 172.7547873 167.60499183 183.47521005 167.60168689 194.19589424 C167.59808769 205.60541756 167.57921226 217.01487428 167.55456662 228.42436981 C167.5483365 231.71367927 167.5447011 235.00298366 167.54153252 238.29229736 C167.53563276 243.4600463 167.51932178 248.62766306 167.49492836 253.79535675 C167.48748626 255.6928429 167.48341629 257.59034569 167.4829483 259.48784637 C167.481691 262.07618114 167.46814877 264.66416717 167.45140076 267.25244141 C167.45381584 268.00487436 167.45623093 268.75730732 167.45871919 269.53254128 C167.41787058 273.55973354 167.05493381 276.74454848 165.17724609 280.33691406 C163.58789063 281.54858398 163.58789063 281.54858398 161.68505859 282.37988281 C160.96995117 282.70134277 160.25484375 283.02280273 159.51806641 283.35400391 C158.7455957 283.67836426 157.973125 284.00272461 157.17724609 284.33691406 C156.38672852 284.68061035 155.59621094 285.02430664 154.78173828 285.37841797 C152.2121023 286.48567179 149.63318798 287.56879982 147.05224609 288.64941406 C140.72325557 291.32422869 134.47839606 294.0737611 128.36474609 297.21191406 C124.41187876 299.23926288 120.56773585 301.02505209 116.38037109 302.48535156 C112.69036352 303.91163109 109.15384464 305.67139272 105.58203125 307.36816406 C99.98641483 310.00459954 94.31255188 312.43074263 88.61474609 314.83691406 C81.44953738 317.87026674 74.48915793 321.10467107 67.56396484 324.65332031 C60.05524593 328.38602833 52.29575818 331.58844694 44.57958984 334.86425781 C38.74939127 337.34225653 32.96809145 339.88080831 27.23974609 342.58691406 C24.55580399 343.84464884 21.86739235 345.09250814 19.17724609 346.33691406 C18.25008789 346.76681641 17.32292969 347.19671875 16.36767578 347.63964844 C13.29092672 349.0560395 10.20420495 350.44849148 7.11474609 351.83691406 C6.12676025 352.29485352 5.13877441 352.75279297 4.12084961 353.22460938 C-4.68516952 357.13906531 -4.68516952 357.13906531 -9.82275391 355.33691406 C-12.24926341 354.39545079 -14.58607309 353.41735306 -16.94775391 352.33691406 C-17.62644531 352.03293701 -18.30513672 351.72895996 -19.00439453 351.41577148 C-20.48329022 350.75236497 -21.96077708 350.08581098 -23.43701172 349.41650391 C-25.96511401 348.27249364 -28.49882816 347.1416405 -31.03369141 346.01269531 C-32.79688389 345.22531916 -34.55990726 344.43756421 -36.32275391 343.64941406 C-37.55856201 343.09737305 -37.55856201 343.09737305 -38.81933594 342.53417969 C-42.62023027 340.82435488 -46.38540158 339.07518638 -50.10400391 337.19238281 C-52.96206694 335.74589802 -55.82389514 334.47161738 -58.82275391 333.33691406 C-61.90893466 332.13255084 -64.87910885 330.85621474 -67.82275391 329.33691406 C-70.60962078 327.90477414 -73.40510263 326.66716081 -76.32275391 325.52441406 C-86.08536678 321.69124091 -95.67318522 317.4897452 -105.01025391 312.71191406 C-110.54641047 309.88682731 -116.13369456 307.57234011 -121.98291016 305.47753906 C-124.81573111 304.33973477 -127.22097917 302.92223983 -129.82275391 301.33691406 C-131.41195589 300.65508678 -133.01682058 300.00861433 -134.63525391 299.39941406 C-137.82999813 298.15938001 -140.90340939 296.84762563 -143.94775391 295.27441406 C-147.03188944 293.68339176 -150.15128313 292.48908973 -153.42041016 291.31738281 C-157.86056869 289.50522055 -162.09360389 287.24297976 -166.35791016 285.05566406 C-168.81569777 283.8364684 -171.08315759 282.86950563 -173.63134766 281.93066406 C-176.82275391 280.33691406 -176.82275391 280.33691406 -178.00955772 278.24943256 C-179.05140258 274.51799297 -179.0741501 270.98204703 -179.02529907 267.14286804 C-179.02292437 266.32188545 -179.02054967 265.50090285 -179.018103 264.65504199 C-179.00769351 261.90652597 -178.98281924 259.15833303 -178.95800781 256.40991211 C-178.94758083 254.43876072 -178.93804576 252.46760443 -178.92933655 250.4964447 C-178.9031637 245.14558872 -178.86449695 239.79488697 -178.82361269 234.44412589 C-178.7830012 228.85209914 -178.75384426 223.26001306 -178.72348022 217.66792297 C-178.66423782 207.07865439 -178.59467113 196.48947971 -178.52140939 185.90029985 C-178.43850473 173.84483636 -178.36708792 161.78931342 -178.2966435 149.73377168 C-178.15147692 124.93473171 -177.99185961 100.13580153 -177.82275391 75.33691406 C-175.84275391 74.84191406 -175.84275391 74.84191406 -173.82275391 74.33691406 C-173.82275391 73.67691406 -173.82275391 73.01691406 -173.82275391 72.33691406 C-173.28650391 72.129375 -172.75025391 71.92183594 -172.19775391 71.70800781 C-161.20230246 67.38578266 -150.22610122 62.83244031 -139.83837891 57.18457031 C-137.82275391 56.33691406 -137.82275391 56.33691406 -133.82275391 56.33691406 C-133.82275391 55.67691406 -133.82275391 55.01691406 -133.82275391 54.33691406 C-132.80955078 53.93859375 -132.80955078 53.93859375 -131.77587891 53.53222656 C-130.43783203 53.00242187 -130.43783203 53.00242187 -129.07275391 52.46191406 C-128.19103516 52.11386719 -127.30931641 51.76582031 -126.40087891 51.40722656 C-123.86692609 50.40834074 -123.86692609 50.40834074 -121.74462891 49.20410156 C-119.82275391 48.33691406 -119.82275391 48.33691406 -115.82275391 48.33691406 C-115.82275391 47.67691406 -115.82275391 47.01691406 -115.82275391 46.33691406 C-115.19369141 46.09457031 -114.56462891 45.85222656 -113.91650391 45.60253906 C-109.05775475 43.7000168 -104.37982575 41.65836313 -99.74462891 39.26660156 C-97.83999783 38.34525563 -95.94006975 37.6086785 -93.94775391 36.89941406 C-90.77313055 35.76028451 -87.824755 34.37463633 -84.82275391 32.83691406 C-81.23776943 31.0007025 -77.69509078 29.49527642 -73.90087891 28.16113281 C-70.50832195 26.8155886 -67.32836725 25.05730088 -64.11962891 23.32519531 C-61.82275391 22.33691406 -61.82275391 22.33691406 -57.82275391 22.33691406 C-57.82275391 21.67691406 -57.82275391 21.01691406 -57.82275391 20.33691406 C-56.94232422 20.01078125 -56.06189453 19.68464844 -55.15478516 19.34863281 C-53.99333984 18.91164063 -52.83189453 18.47464844 -51.63525391 18.02441406 C-50.48669922 17.59515625 -49.33814453 17.16589844 -48.15478516 16.72363281 C-45.15322333 15.47444823 -42.58657894 14.02793859 -39.82275391 12.33691406 C-38.23355192 11.65508678 -36.62868723 11.00861433 -35.01025391 10.39941406 C-31.81550969 9.15938001 -28.74209842 7.84762563 -25.69775391 6.27441406 C-22.44052819 4.59326531 -19.15105155 3.28817749 -15.69775391 2.06738281 C-13.55915291 1.28408664 -13.55915291 1.28408664 -10.69775391 -0.41308594 C-6.76099069 -2.12472212 -4.0035083 -1.45640618 0 0 Z " fill="#C2C2C2" transform="translate(257.82275390625,81.6630859375)"/>
<path d="M0 0 C1.99475724 0.82439776 3.96195177 1.69460231 5.92724609 2.58691406 C6.98939331 3.05943604 6.98939331 3.05943604 8.07299805 3.54150391 C11.88947192 5.25310294 15.64637893 7.0447264 19.36474609 8.96191406 C24.15942263 11.43239147 29.13089804 13.28720429 34.19677734 15.12597656 C37.17724609 16.33691406 37.17724609 16.33691406 39.65771484 17.82910156 C42.56913345 19.5714389 45.49129715 20.67568034 48.67724609 21.83691406 C52.82677022 23.34935744 56.41685359 25.03651082 60.17724609 27.33691406 C61.76644808 28.01874134 63.37131277 28.6652138 64.98974609 29.27441406 C68.18449031 30.51444812 71.25790158 31.8262025 74.30224609 33.39941406 C77.39370042 34.99421193 80.52119294 36.1906416 83.79833984 37.36425781 C87.53632312 38.8925958 91.08135482 40.79600131 94.67163086 42.63989258 C99.75980918 45.21357604 104.96726043 47.27306043 110.33740234 49.19628906 C113.17724609 50.33691406 113.17724609 50.33691406 115.64208984 51.82128906 C118.55984331 53.56564707 121.48521082 54.67346196 124.67724609 55.83691406 C128.83288336 57.35158559 132.39588404 59.06809683 136.17724609 61.33691406 C138.32817578 62.21006374 140.49620723 63.04195597 142.67724609 63.83691406 C146.82592475 65.34904927 150.414767 67.04180182 154.17724609 69.33691406 C156.14002844 70.07295744 158.10889257 70.69124263 160.11474609 71.29785156 C163.21651758 72.86048644 164.97040367 74.64389722 167.17724609 77.33691406 C167.66381169 80.2316648 167.84263834 82.53355251 167.79197693 85.42138672 C167.79766018 86.23067438 167.80334344 87.03996204 167.80919892 87.87377357 C167.82210955 90.5833657 167.79930643 93.29146616 167.77661133 96.00097656 C167.77847527 97.94431878 167.78251167 99.88765995 167.78855896 101.83099365 C167.79854294 107.10792919 167.77734767 112.38432853 167.75007892 117.66118622 C167.72626472 123.18150304 167.72919398 128.70180893 167.72877502 134.22216797 C167.72414537 143.49293098 167.70049307 152.76348877 167.66430664 162.03417969 C167.62257229 172.7547873 167.60499183 183.47521005 167.60168689 194.19589424 C167.59808769 205.60541756 167.57921226 217.01487428 167.55456662 228.42436981 C167.5483365 231.71367927 167.5447011 235.00298366 167.54153252 238.29229736 C167.53563276 243.4600463 167.51932178 248.62766306 167.49492836 253.79535675 C167.48748626 255.6928429 167.48341629 257.59034569 167.4829483 259.48784637 C167.481691 262.07618114 167.46814877 264.66416717 167.45140076 267.25244141 C167.45381584 268.00487436 167.45623093 268.75730732 167.45871919 269.53254128 C167.41787058 273.55973354 167.05493381 276.74454848 165.17724609 280.33691406 C163.58789063 281.54858398 163.58789063 281.54858398 161.68505859 282.37988281 C160.96995117 282.70134277 160.25484375 283.02280273 159.51806641 283.35400391 C158.7455957 283.67836426 157.973125 284.00272461 157.17724609 284.33691406 C156.38672852 284.68061035 155.59621094 285.02430664 154.78173828 285.37841797 C152.2121023 286.48567179 149.63318798 287.56879982 147.05224609 288.64941406 C140.72325557 291.32422869 134.47839606 294.0737611 128.36474609 297.21191406 C124.41187876 299.23926288 120.56773585 301.02505209 116.38037109 302.48535156 C112.69036352 303.91163109 109.15384464 305.67139272 105.58203125 307.36816406 C99.98641483 310.00459954 94.31255188 312.43074263 88.61474609 314.83691406 C81.44953738 317.87026674 74.48915793 321.10467107 67.56396484 324.65332031 C60.05524593 328.38602833 52.29575818 331.58844694 44.57958984 334.86425781 C38.74939127 337.34225653 32.96809145 339.88080831 27.23974609 342.58691406 C24.55580399 343.84464884 21.86739235 345.09250814 19.17724609 346.33691406 C18.25008789 346.76681641 17.32292969 347.19671875 16.36767578 347.63964844 C13.29092672 349.0560395 10.20420495 350.44849148 7.11474609 351.83691406 C6.12676025 352.29485352 5.13877441 352.75279297 4.12084961 353.22460938 C-4.68516952 357.13906531 -4.68516952 357.13906531 -9.82275391 355.33691406 C-12.24926341 354.39545079 -14.58607309 353.41735306 -16.94775391 352.33691406 C-17.62644531 352.03293701 -18.30513672 351.72895996 -19.00439453 351.41577148 C-20.48329022 350.75236497 -21.96077708 350.08581098 -23.43701172 349.41650391 C-25.96511401 348.27249364 -28.49882816 347.1416405 -31.03369141 346.01269531 C-32.79688389 345.22531916 -34.55990726 344.43756421 -36.32275391 343.64941406 C-37.55856201 343.09737305 -37.55856201 343.09737305 -38.81933594 342.53417969 C-42.62023027 340.82435488 -46.38540158 339.07518638 -50.10400391 337.19238281 C-52.96206694 335.74589802 -55.82389514 334.47161738 -58.82275391 333.33691406 C-61.90893466 332.13255084 -64.87910885 330.85621474 -67.82275391 329.33691406 C-70.60962078 327.90477414 -73.40510263 326.66716081 -76.32275391 325.52441406 C-86.08536678 321.69124091 -95.67318522 317.4897452 -105.01025391 312.71191406 C-110.54641047 309.88682731 -116.13369456 307.57234011 -121.98291016 305.47753906 C-124.81573111 304.33973477 -127.22097917 302.92223983 -129.82275391 301.33691406 C-131.41195589 300.65508678 -133.01682058 300.00861433 -134.63525391 299.39941406 C-137.82999813 298.15938001 -140.90340939 296.84762563 -143.94775391 295.27441406 C-147.03188944 293.68339176 -150.15128313 292.48908973 -153.42041016 291.31738281 C-157.86056869 289.50522055 -162.09360389 287.24297976 -166.35791016 285.05566406 C-168.81569777 283.8364684 -171.08315759 282.86950563 -173.63134766 281.93066406 C-176.82275391 280.33691406 -176.82275391 280.33691406 -178.00955772 278.24943256 C-179.05140258 274.51799297 -179.0741501 270.98204703 -179.02529907 267.14286804 C-179.02292437 266.32188545 -179.02054967 265.50090285 -179.018103 264.65504199 C-179.00769351 261.90652597 -178.98281924 259.15833303 -178.95800781 256.40991211 C-178.94758083 254.43876072 -178.93804576 252.46760443 -178.92933655 250.4964447 C-178.9031637 245.14558872 -178.86449695 239.79488697 -178.82361269 234.44412589 C-178.7830012 228.85209914 -178.75384426 223.26001306 -178.72348022 217.66792297 C-178.66423782 207.07865439 -178.59467113 196.48947971 -178.52140939 185.90029985 C-178.43850473 173.84483636 -178.36708792 161.78931342 -178.2966435 149.73377168 C-178.15147692 124.93473171 -177.99185961 100.13580153 -177.82275391 75.33691406 C-175.84275391 74.84191406 -175.84275391 74.84191406 -173.82275391 74.33691406 C-173.82275391 73.67691406 -173.82275391 73.01691406 -173.82275391 72.33691406 C-173.28650391 72.129375 -172.75025391 71.92183594 -172.19775391 71.70800781 C-161.20230246 67.38578266 -150.22610122 62.83244031 -139.83837891 57.18457031 C-137.82275391 56.33691406 -137.82275391 56.33691406 -133.82275391 56.33691406 C-133.82275391 55.67691406 -133.82275391 55.01691406 -133.82275391 54.33691406 C-132.80955078 53.93859375 -132.80955078 53.93859375 -131.77587891 53.53222656 C-130.43783203 53.00242187 -130.43783203 53.00242187 -129.07275391 52.46191406 C-128.19103516 52.11386719 -127.30931641 51.76582031 -126.40087891 51.40722656 C-123.86692609 50.40834074 -123.86692609 50.40834074 -121.74462891 49.20410156 C-119.82275391 48.33691406 -119.82275391 48.33691406 -115.82275391 48.33691406 C-115.82275391 47.67691406 -115.82275391 47.01691406 -115.82275391 46.33691406 C-115.19369141 46.09457031 -114.56462891 45.85222656 -113.91650391 45.60253906 C-109.05775475 43.7000168 -104.37982575 41.65836313 -99.74462891 39.26660156 C-97.83999783 38.34525563 -95.94006975 37.6086785 -93.94775391 36.89941406 C-90.77313055 35.76028451 -87.824755 34.37463633 -84.82275391 32.83691406 C-81.23776943 31.0007025 -77.69509078 29.49527642 -73.90087891 28.16113281 C-70.50832195 26.8155886 -67.32836725 25.05730088 -64.11962891 23.32519531 C-61.82275391 22.33691406 -61.82275391 22.33691406 -57.82275391 22.33691406 C-57.82275391 21.67691406 -57.82275391 21.01691406 -57.82275391 20.33691406 C-56.94232422 20.01078125 -56.06189453 19.68464844 -55.15478516 19.34863281 C-53.99333984 18.91164063 -52.83189453 18.47464844 -51.63525391 18.02441406 C-50.48669922 17.59515625 -49.33814453 17.16589844 -48.15478516 16.72363281 C-45.15322333 15.47444823 -42.58657894 14.02793859 -39.82275391 12.33691406 C-38.23355192 11.65508678 -36.62868723 11.00861433 -35.01025391 10.39941406 C-31.81550969 9.15938001 -28.74209842 7.84762563 -25.69775391 6.27441406 C-22.44052819 4.59326531 -19.15105155 3.28817749 -15.69775391 2.06738281 C-13.55915291 1.28408664 -13.55915291 1.28408664 -10.69775391 -0.41308594 C-6.76099069 -2.12472212 -4.0035083 -1.45640618 0 0 Z M-12.19775391 13.40722656 C-13.2501123 13.88474365 -14.3024707 14.36226074 -15.38671875 14.85424805 C-16.52061035 15.38477783 -17.65450195 15.91530762 -18.82275391 16.46191406 C-20.64522005 17.29381307 -22.46769471 18.12569391 -24.2906189 18.95658875 C-26.19817624 19.82828605 -28.10294719 20.70585169 -30.00732422 21.58447266 C-36.0475272 24.3660996 -42.12575366 27.06313198 -48.19775391 29.77441406 C-50.64749165 30.87221693 -53.09647719 31.97169231 -55.54541016 33.07128906 C-60.26069641 35.18779337 -64.97682924 37.30239761 -69.69384766 39.41503906 C-72.00765342 40.45148919 -74.32145546 41.48794761 -76.63525391 42.52441406 C-78.37814697 43.30498169 -78.37814697 43.30498169 -80.15625 44.10131836 C-87.37694067 47.33671087 -94.59175857 50.58491373 -101.80322266 53.84082031 C-104.43047272 55.02637045 -107.05780719 56.21173318 -109.68521118 57.39694214 C-111.43874676 58.18807931 -113.1921452 58.97952052 -114.94540405 59.77127075 C-135.96324816 69.25895037 -135.96324816 69.25895037 -146.16064453 73.34960938 C-153.54987585 76.40049219 -159.67193864 80.25073391 -166.82275391 84.33691406 C-166.82275391 146.04691406 -166.82275391 207.75691406 -166.82275391 271.33691406 C-154.50954138 277.56191235 -154.50954138 277.56191235 -142.01025391 283.33691406 C-141.27508545 283.66103271 -140.53991699 283.98515137 -139.7824707 284.3190918 C-133.54934735 287.05344917 -127.2775397 289.69760659 -120.98168945 292.28417969 C-115.55357903 294.53576795 -110.23265188 296.99563728 -104.91516113 299.49429321 C-97.03442837 303.19000741 -89.08432183 306.72874762 -81.13525391 310.27441406 C-79.48490953 311.0117215 -77.834601 311.74910917 -76.18432617 312.48657227 C-67.72705418 316.2642995 -59.26505183 320.03131884 -50.79931641 323.79003906 C-49.58851662 324.32770653 -49.58851662 324.32770653 -48.35325623 324.87623596 C-44.51544663 326.58018815 -40.67708146 328.28286762 -36.83764648 329.9831543 C-36.13473984 330.29499161 -35.43183319 330.60682892 -34.70762634 330.92811584 C-33.34263629 331.53328341 -31.97698213 332.13695566 -30.61061096 332.73899841 C-27.40688072 334.15703075 -24.23177555 335.61102312 -21.08886719 337.15966797 C-19.94015137 337.71960449 -18.79143555 338.27954102 -17.60791016 338.85644531 C-16.10756226 339.61018433 -16.10756226 339.61018433 -14.5769043 340.37915039 C-11.43822847 341.47063388 -9.92194449 341.49054438 -6.82275391 340.33691406 C-1.22574291 331.94139756 -3.68632837 316.60653519 -3.70922852 306.61303711 C-3.7095112 304.86729941 -3.70935107 303.1215616 -3.70878601 301.37582397 C-3.70850121 296.67631984 -3.71434628 291.97684166 -3.72135997 287.27734351 C-3.72764669 282.35130431 -3.72820149 277.4252644 -3.72938538 272.4992218 C-3.73248309 263.18879125 -3.74067531 253.87837256 -3.75073487 244.56794721 C-3.76194463 233.96083587 -3.76741867 223.35372394 -3.7724303 212.74660814 C-3.78285935 190.94337018 -3.80042836 169.14014287 -3.82275391 147.33691406 C-3.22241837 147.14119812 -2.62208282 146.94548218 -2.0035553 146.74383545 C-1.20662766 146.48161194 -0.40970001 146.21938843 0.41137695 145.94921875 C1.59031776 145.56283234 1.59031776 145.56283234 2.79307556 145.16864014 C6.54236651 143.86068712 10.13020854 142.23535158 13.73974609 140.58691406 C15.31765547 139.87549812 16.895785 139.1645703 18.47412109 138.45410156 C19.25980469 138.09928711 20.04548828 137.74447266 20.85498047 137.37890625 C24.38722921 135.79399901 27.93845383 134.2535469 31.48974609 132.71191406 C36.22976347 130.65023211 40.93439159 128.53191903 45.61474609 126.33691406 C50.55779353 124.03056644 55.55838324 121.93896958 60.61474609 119.89941406 C65.7079179 117.83713097 70.66124069 115.66513719 75.55224609 113.14941406 C84.89456672 108.37257139 94.52279026 104.23633016 104.1224823 100.00794983 C111.89007977 96.58569096 119.64418025 93.13306741 127.39959717 89.68331909 C131.34985081 87.92639564 135.3006741 86.17075431 139.25146484 84.41503906 C140.60132116 83.81511046 141.95117497 83.21517623 143.30102539 82.61523438 C144.25017822 82.19338867 145.19933105 81.77154297 146.17724609 81.33691406 C146.17724609 80.67691406 146.17724609 80.01691406 146.17724609 79.33691406 C130.72681931 71.8565435 115.11946182 64.76135071 99.43652344 57.78662109 C96.66774968 56.55508712 93.90050524 55.32024535 91.13427734 54.08300781 C84.84545966 51.27431573 78.54763111 48.49140688 72.22021484 45.77050781 C71.18751465 45.32537842 70.15481445 44.88024902 69.09082031 44.42163086 C67.07973999 43.55605252 65.06713004 42.69401614 63.05273438 41.83618164 C57.87749944 39.60859625 53.03985538 37.17546223 48.17724609 34.33691406 C46.59007581 33.65037064 44.98675403 32.99903199 43.36474609 32.39941406 C39.08387949 30.7479451 35.04478793 28.82404332 30.98974609 26.68066406 C28.51910676 25.50024749 26.05525694 24.47630719 23.50927734 23.47363281 C17.30934975 21.02698854 11.28064808 18.23672911 5.23779297 15.42871094 C4.39667969 15.04392578 3.55556641 14.65914062 2.68896484 14.26269531 C1.94090576 13.91634033 1.19284668 13.56998535 0.42211914 13.21313477 C-4.59277811 11.25571593 -7.25960732 11.12575443 -12.19775391 13.40722656 Z " fill="#050505" transform="translate(257.82275390625,81.6630859375)"/>
<path d="M0 0 C0.99 0.33 1.98 0.66 3 1 C2.34 1 1.68 1 1 1 C0.690625 1.639375 0.38125 2.27875 0.0625 2.9375 C-1 5 -1 5 -2 6 C-2.1056942 8.51201011 -2.14604619 10.99694165 -2.14476013 13.50975037 C-2.14828698 14.30548637 -2.15181382 15.10122237 -2.15544754 15.92107159 C-2.16618812 18.6081127 -2.16982474 21.29511844 -2.17358398 23.98217773 C-2.17988506 25.90023958 -2.18665035 27.81829995 -2.19384766 29.73635864 C-2.20854739 33.87683749 -2.2202599 38.01731057 -2.22979546 42.15780449 C-2.24520259 48.69882258 -2.26915058 55.23979163 -2.29469299 61.78077698 C-2.3660192 80.38417468 -2.42573676 98.9876005 -2.47680664 117.59106445 C-2.50506627 127.85776528 -2.54042328 138.12441734 -2.58346039 148.39106709 C-2.61030867 154.8993518 -2.62816707 161.4075813 -2.63949764 167.9159106 C-2.64859472 171.95857476 -2.66594259 176.00117162 -2.68567657 180.04379654 C-2.69317836 181.92480097 -2.6972347 183.80582262 -2.69767189 185.68684196 C-2.69874729 188.24578492 -2.71193026 190.80438177 -2.72825623 193.36326599 C-2.72563937 194.11549311 -2.72302252 194.86772022 -2.72032636 195.6427421 C-2.771786 200.771786 -2.771786 200.771786 -5 203 C-4.67 137 -4.34 71 -4 3 C-2.68 2.67 -1.36 2.34 0 2 C0 1.34 0 0.68 0 0 Z " fill="#222222" transform="translate(84,154)"/>
<path d="M0 0 C0.99 0.33 1.98 0.66 3 1 C2.34 1 1.68 1 1 1 C0.690625 1.639375 0.38125 2.27875 0.0625 2.9375 C-1 5 -1 5 -2 6 C-2.23653523 8.52596259 -2.42173692 11.03107207 -2.5625 13.5625 C-2.60568359 14.27341797 -2.64886719 14.98433594 -2.69335938 15.71679688 C-2.79971777 17.47761912 -2.90038846 19.2387832 -3 21 C-3.33 21 -3.66 21 -4 21 C-4 15.06 -4 9.12 -4 3 C-2.68 2.67 -1.36 2.34 0 2 C0 1.34 0 0.68 0 0 Z " fill="#414141" transform="translate(84,154)"/>
</svg>
